<?xml version="1.0" encoding="UTF-8" standalone="no"?>
<svg width="296px" height="258px" viewBox="0 0 296 258" version="1.1" xmlns="http://www.w3.org/2000/svg" xmlns:xlink="http://www.w3.org/1999/xlink">
    <!-- Generator: Sketch 3.7.1 (28215) - http://www.bohemiancoding.com/sketch -->
    <title>Get Out 2</title>
    <desc>Created with Sketch.</desc>
    <defs>
        <rect id="path-1" x="0" y="0" width="276" height="166"></rect>
        <mask id="mask-2" maskContentUnits="userSpaceOnUse" maskUnits="objectBoundingBox" x="-10" y="-10" width="296" height="186">
            <rect x="-10" y="-10" width="296" height="186" fill="white"></rect>
            <use xlink:href="#path-1" fill="black"></use>
        </mask>
    </defs>
    <g id="Wireframe" stroke="none" stroke-width="1" fill="none" fill-rule="evenodd">
        <g id="Landing-Page" transform="translate(-41.000000, -111.000000)">
            <g id="Get-Out-2" transform="translate(51.000000, 121.000000)">
                <use id="Rectangle-4-Copy" stroke="#00FF9A" mask="url(#mask-2)" stroke-width="20" xlink:href="#path-1"></use>
                <g id="GO" transform="translate(22.000000, 31.000000)" fill="#00FF9A">
                    <path d="M95.107,94.05 C88.712968,97.3860167 82.0410348,99.7953259 75.091,101.278 C68.1409653,102.760674 61.0520361,103.502 53.824,103.502 C46.1326282,103.502 39.0436991,102.297345 32.557,99.888 C26.0703009,97.4786546 20.4640236,94.0268558 15.738,89.5325 C11.0119764,85.0381442 7.3285132,79.594032 4.6875,73.2 C2.04648679,66.805968 0.726,59.670706 0.726,51.794 C0.726,43.9172939 2.04648679,36.782032 4.6875,30.388 C7.3285132,23.993968 11.0119764,18.5498558 15.738,14.0555 C20.4640236,9.56114419 26.0703009,6.10934538 32.557,3.7 C39.0436991,1.29065462 46.1326282,0.086 53.824,0.086 C61.7007061,0.086 68.9518002,1.03582383 75.5775,2.9355 C82.2031998,4.83517617 88.017975,8.1016435 93.022,12.735 L77.732,29.415 C74.7666518,26.3569847 71.4306852,24.0403412 67.724,22.465 C64.0173148,20.8896588 59.3840278,20.102 53.824,20.102 C49.1906435,20.102 44.9975188,20.8896588 41.2445,22.465 C37.4914812,24.0403412 34.2713468,26.2411525 31.584,29.0675 C28.8966532,31.8938475 26.8348405,35.2529805 25.3985,39.145 C23.9621595,43.0370195 23.244,47.2533106 23.244,51.794 C23.244,56.4273565 23.9621595,60.6668141 25.3985,64.5125 C26.8348405,68.3581859 28.8966532,71.6941525 31.584,74.5205 C34.2713468,77.3468475 37.4914812,79.5476588 41.2445,81.123 C44.9975188,82.6983412 49.1906435,83.486 53.824,83.486 C58.5500236,83.486 62.6273162,82.953172 66.056,81.8875 C69.4846838,80.821828 72.2183231,79.7330056 74.257,78.621 L74.257,62.636 L56.604,62.636 L56.604,42.62 L95.107,42.62 L95.107,94.05 Z" id="G"></path>
                    <path d="M121,51.708 C121,43.831294 122.320487,36.696032 124.9615,30.302 C127.602513,23.907968 131.285976,18.4638558 136.012,13.9695 C140.738024,9.4751442 146.344301,6.02334538 152.831,3.614 C159.317699,1.20465462 166.406628,0 174.098,0 C181.789372,0 188.878301,1.20465462 195.365,3.614 C201.851699,6.02334538 207.457976,9.4751442 212.184,13.9695 C216.910024,18.4638558 220.593487,23.907968 223.2345,30.302 C225.875513,36.696032 227.196,43.831294 227.196,51.708 C227.196,59.5847061 225.875513,66.719968 223.2345,73.114 C220.593487,79.508032 216.910024,84.9521442 212.184,89.4465 C207.457976,93.9408558 201.851699,97.3926546 195.365,99.802 C188.878301,102.211345 181.789372,103.416 174.098,103.416 C166.406628,103.416 159.317699,102.211345 152.831,99.802 C146.344301,97.3926546 140.738024,93.9408558 136.012,89.4465 C131.285976,84.9521442 127.602513,79.508032 124.9615,73.114 C122.320487,66.719968 121,59.5847061 121,51.708 L121,51.708 Z M143.518,51.708 C143.518,56.3413565 144.236159,60.5808141 145.6725,64.4265 C147.108841,68.2721859 149.170653,71.6081525 151.858,74.4345 C154.545347,77.2608475 157.765481,79.4616588 161.5185,81.037 C165.271519,82.6123412 169.464644,83.4 174.098,83.4 C178.731357,83.4 182.924481,82.6123412 186.6775,81.037 C190.430519,79.4616588 193.650653,77.2608475 196.338,74.4345 C199.025347,71.6081525 201.087159,68.2721859 202.5235,64.4265 C203.959841,60.5808141 204.678,56.3413565 204.678,51.708 C204.678,47.1673106 203.959841,42.9510195 202.5235,39.059 C201.087159,35.1669805 199.025347,31.8078475 196.338,28.9815 C193.650653,26.1551525 190.430519,23.9543412 186.6775,22.379 C182.924481,20.8036588 178.731357,20.016 174.098,20.016 C169.464644,20.016 165.271519,20.8036588 161.5185,22.379 C157.765481,23.9543412 154.545347,26.1551525 151.858,28.9815 C149.170653,31.8078475 147.108841,35.1669805 145.6725,39.059 C144.236159,42.9510195 143.518,47.1673106 143.518,51.708 L143.518,51.708 Z" id="O"></path>
                </g>
                <g id="Get-Out-Logo" transform="translate(27.000000, 198.000000)" font-size="40" font-family="Avenir-Black, Avenir" letter-spacing="10.3000002" fill="#FFFFFF" font-weight="700">
                    <text id="get">
                        <tspan x="0" y="40">get</tspan>
                    </text>
                    <text id="out">
                        <tspan x="126" y="40">out</tspan>
                    </text>
                </g>
            </g>
        </g>
    </g>
</svg>